<?xml version="1.0" standalone="no"?><!DOCTYPE svg PUBLIC "-//W3C//DTD SVG 1.1//EN" "http://www.w3.org/Graphics/SVG/1.1/DTD/svg11.dtd"><svg t="1636529533636" class="icon" viewBox="0 0 1024 1024" version="1.1" xmlns="http://www.w3.org/2000/svg" p-id="6399" width="32" height="32" xmlns:xlink="http://www.w3.org/1999/xlink"><defs><style type="text/css"></style></defs><path d="M710.928 635.196c200.661-245.082 297.62-470.278 221.983-545.915-74.815-74.815-295.957 19.238-537.932 215.481l-61.643-16.296c-13.876-3.668-32.798 0.899-42.049 10.15L76.839 513.064c-9.251 9.251-5.466 19.821 8.41 23.489l132.453 35.016c13.876 3.668 32.798-0.899 42.049-10.15L276.1 545.07l199.535 199.535-22.296 22.296c-9.251 9.251-13.818 28.173-10.15 42.049l35.016 132.454c3.668 13.876 14.239 17.66 23.489 8.41l214.449-214.448c9.251-9.251 13.818-28.173 10.15-42.049l-15.365-58.121z m61.131-456.421c42.695 0 77.306 34.611 77.306 77.306s-34.611 77.306-77.306 77.306-77.306-34.611-77.306-77.306 34.612-77.306 77.306-77.306z" p-id="6400"></path><path d="M343.577 758.665c-8.843 14.738-22.575 20.866-32.248 20.866-53.114 0-90.087 46.492-90.087 46.492-0.798-23.561 24.261-51.616 24.261-51.616-48.246 8.662-77.824 62.549-77.824 62.549-10.83-117.058 118.893-177.029 118.893-177.029C77.564 655.789 66.245 853.133 66.245 853.133c23.862-48.222 51.991-42.856 51.991-42.856-58.406 70.585-36.618 149.281-36.618 149.281 59.155-77.424 157.569-81.445 157.569-81.445-27.331 18.196-36.766 58.081-36.766 58.081 13.628-31.898 86.952-52.339 115.787-70.113 76.659-47.253 35.636-138.882 35.636-138.882-6.18 14.464-4.576 21.981-10.267 31.466z" p-id="6401"></path></svg>